<?xml version="1.0" encoding="utf-8"?>
<!-- Generator: Adobe Illustrator 23.0.3, SVG Export Plug-In . SVG Version: 6.00 Build 0)  -->
<svg version="1.1" id="Layer_1" xmlns="http://www.w3.org/2000/svg" xmlns:xlink="http://www.w3.org/1999/xlink" x="0px" y="0px"
	 viewBox="0 0 100 100" style="enable-background:new 0 0 100 100;" xml:space="preserve">
<style type="text/css">
	.st0{fill:#005EA5;}
</style>
<title>55 машина</title>
<g>
	<path class="st0" d="M99.4,49.5c0-4.2-3.4-7.7-7.6-7.8h-7.3c-4,0-7.7-2-10-5.2l-5.1-6.7c-3.3-4.5-8.5-7.1-14.1-7.1H23
		c-5.4-0.1-10.6,2.4-13.8,6.8l-7,8.8c-1.1,1.4-1.7,3.1-1.7,4.9V62c0,4.3,3.4,7.7,7.6,7.8h3.2c1.8,5.6,7.8,8.8,13.4,7
		c3.4-1.1,6-3.7,7-7.1h34.7c1.7,5.7,7.6,8.9,13.3,7.2c3.4-1,6.1-3.7,7.2-7.1h4.9c2,0,3.9-0.8,5.4-2.2c1.4-1.5,2.2-3.4,2.2-5.5
		L99.4,49.5z M72.1,38.3c1,1.3,2.1,2.4,3.4,3.4h-31v-10h22.6L72.1,38.3z M13.1,41.7c-0.2,0-0.4-0.2-0.5-0.4
		c-0.1-0.3-0.1-0.6,0.1-0.8l6.4-6.8c1.2-1.3,2.9-2.1,4.7-2.1h17.7v10H13.1z M21.5,74.2c-4.3,0-7.7-3.5-7.7-7.7
		c0-4.3,3.5-7.7,7.7-7.7c4.3,0,7.7,3.5,7.7,7.7l0,0C29.2,70.8,25.8,74.2,21.5,74.2L21.5,74.2z M76.7,74.2c-4.3,0-7.7-3.5-7.7-7.7
		s3.5-7.7,7.7-7.7c4.3,0,7.7,3.5,7.7,7.7l0,0C84.4,70.8,81,74.2,76.7,74.2L76.7,74.2z M91.9,66.7h-4.4c0-0.1,0-0.1,0-0.2
		c0-5.9-4.8-10.7-10.7-10.7c-5.9,0-10.7,4.8-10.7,10.7c0,0,0,0.1,0,0.1H32.2c0,0,0-0.1,0-0.1c0-5.9-4.8-10.7-10.7-10.7
		c-5.9,0-10.7,4.8-10.7,10.7c0,0.1,0,0.1,0,0.2H8.1c-2.3,0-4.2-1.7-4.6-4h4.9v-3h-5V43.2c0-1.1,0.3-2.1,1-3l7-8.8
		c2.7-3.6,7-5.7,11.5-5.6h32.3c3.2,0,6.3,1,8.9,3H23.8c-2.6,0-5.1,1.1-6.9,3l-6.4,6.7c-1,1.1-1.3,2.6-0.8,3.9
		c0.5,1.4,1.8,2.3,3.3,2.3h69.7v-0.1c0.6,0.1,1.1,0.1,1.7,0.1h7.3c2.6,0.1,4.7,2.2,4.6,4.8l0.1,10.2h-7v3h6.9
		c-0.2,1-0.6,1.9-1.3,2.6C94.2,66.3,93.1,66.7,91.9,66.7z"/>
	<rect x="34.5" y="59.7" class="st0" width="29" height="3"/>
</g>
</svg>
