<?xml version="1.0" encoding="UTF-8"?>
<svg width="97px" height="48px" viewBox="0 0 97 48" version="1.1" xmlns="http://www.w3.org/2000/svg" xmlns:xlink="http://www.w3.org/1999/xlink">
    <!-- Generator: Sketch 52.6 (67491) - http://www.bohemiancoding.com/sketch -->
    <title>HGV icon</title>
    <desc>Created with Sketch.</desc>
    <g id="ATF-confirmation" stroke="none" stroke-width="1" fill="none" fill-rule="evenodd">
        <g id="Artboard" transform="translate(-552.000000, -241.000000)" fill="#005EA5" fill-rule="nonzero">
            <g id="HGV-icon" transform="translate(600.500000, 265.000000) scale(-1, 1) translate(-600.500000, -265.000000) translate(552.000000, 241.000000)">
                <path d="M10.4821911,35.8893585 L2.0142083,35.8893585 C1.3456836,35.8893585 0.9000001,35.443676 0.9000001,34.7751503 C0.9000001,34.1066284 1.3456836,33.6609421 2.0142083,33.6609421 L10.37077,33.6609421 C11.0392947,33.6609421 11.4849782,34.1066284 11.4849782,34.7751503 C11.4849787,35.443676 11.0392952,35.8893585 10.4821911,35.8893585 Z M96.8333359,22.8531265 L96.8333359,38.4520416 C96.8333359,40.2347755 95.3848572,41.7946663 93.4907074,41.7946663 L81.4572525,41.7946663 C80.9001541,45.137291 78.003212,47.6999741 74.5491638,47.6999741 C71.0951233,47.6999741 68.1981811,45.137291 67.6410751,41.7946701 L42.4599686,41.7946701 C41.9028664,45.1372986 39.0059243,47.6999741 35.5518761,47.6999741 C32.0978318,47.6999741 29.2008896,45.137291 28.6437855,41.7946701 L25.6354218,41.7946701 C25.0783177,45.1372986 22.1813756,47.6999741 18.7273293,47.6999741 C15.273283,47.6999741 12.3763428,45.137291 11.8192387,41.7946701 L7.3624058,41.7946701 C6.6938811,41.7946701 6.2481976,41.3489876 6.2481976,40.6804619 C6.2481976,40.01194 6.6938811,39.5662537 7.3624058,39.5662537 L11.8192387,39.5662537 C12.3763428,36.223629 15.273283,33.6609536 18.7273293,33.6609536 C22.1813756,33.6609536 25.0783177,36.2236291 25.6354218,39.5662537 L28.6437855,39.5662537 C29.2008896,36.223629 32.0978317,33.6609536 35.5518761,33.6609536 C39.0059205,33.6609536 41.9028664,36.2236291 42.4599686,39.5662537 L67.5296555,39.5662537 C68.0867615,36.223629 70.9837037,33.6609536 74.4377518,33.6609536 C77.8917923,33.6609536 80.7887345,36.2236291 81.3458329,39.5662537 L93.4907075,39.5662537 C94.0478135,39.5662537 94.6049195,39.1205712 94.6049195,38.4520455 L94.6049195,35.4436837 L81.4572525,35.4436837 C80.7887344,35.4436837 80.3430481,34.9979974 80.3430481,34.3294755 C80.3430481,33.6609536 80.7887344,33.2152673 81.4572525,33.2152673 L94.6049194,33.2152673 L94.6049194,23.5216485 L92.376503,23.5216485 C90.4823532,23.5216485 89.0338745,21.9617578 89.0338745,20.1790238 L89.0338745,8.7026806 C89.0338745,6.9199467 90.4823532,5.4714775 92.2650833,5.4714775 L94.2706604,5.4714775 C94.1592407,5.2486343 94.1592407,5.1372147 93.9363937,5.0257931 L91.7079773,3.1316395 C91.4851379,2.9087963 91.262291,2.9087963 91.0394516,2.9087963 L63.0728226,2.9087963 C62.5157204,2.9087963 61.9586144,3.3544788 61.9586144,4.0230045 L61.9586144,33.5495262 C61.9586144,33.5495262 61.9586144,33.5495262 61.9586144,33.6609421 L65.4126587,33.6609421 C66.0811844,33.6609421 66.5268707,34.1066284 66.5268707,34.7751503 C66.5268707,35.443676 66.0811844,35.8893585 65.4126587,35.8893585 L43.0170746,35.8893585 C42.3485489,35.8893585 41.9028664,35.443676 41.9028664,34.7751503 C41.9028664,34.1066284 42.3485489,33.6609421 43.0170746,33.6609421 L53.3792114,33.6609421 L53.3792114,20.1790237 C53.3792114,19.0648155 53.8248939,17.9506073 54.6048393,17.0592422 L59.7301941,11.3767814 L59.7301941,3.9115848 C59.7301941,2.1288528 61.1786652,0.5689601 63.0728226,0.5689601 L91.1508637,0.5689601 C91.9308091,0.5689601 92.7107544,0.9032229 93.2678605,1.3489074 L95.4962769,3.2430629 C96.1648026,3.9115886 96.6104889,4.8029536 96.6104889,5.6943206 L96.8333359,22.8531265 Z M59.7301979,33.6609421 C59.7301979,33.6609421 59.7301979,33.5495262 59.7301979,33.6609421 L59.7301979,14.7194023 L56.2761536,18.619133 C55.8304711,18.9533958 55.6076279,19.5105019 55.6076279,20.1790237 L55.6076279,33.6609421 L59.7301979,33.6609421 Z M23.5184288,40.6804581 C23.5184288,38.0063591 21.4014339,35.8893662 18.727335,35.8893662 C16.0532361,35.8893662 13.9362383,38.006363 13.9362383,40.6804581 C13.9362383,43.3545571 16.0532341,45.4715576 18.727335,45.4715576 C21.4014359,45.4715576 23.5184288,43.2431374 23.5184288,40.6804581 Z M40.3429718,40.6804581 C40.3429718,38.0063591 38.225975,35.8893662 35.5518761,35.8893662 C32.8777809,35.8893662 30.7607823,38.006363 30.7607823,40.6804581 C30.7607823,43.3545571 32.8777772,45.4715576 35.5518761,45.4715576 C38.2259789,45.4715576 40.3429718,43.2431374 40.3429718,40.6804581 Z M79.3402634,40.6804581 C79.3402634,38.0063591 77.2232666,35.8893662 74.5491639,35.8893662 C71.8750687,35.8893662 69.758072,38.006363 69.758072,40.6804581 C69.758072,43.3545571 71.8750688,45.4715576 74.5491639,45.4715576 C77.1118469,45.3601303 79.3402634,43.2431374 79.3402634,40.6804581 Z M94.1592331,7.699892 L92.376503,7.699892 C91.819397,7.699892 91.3737106,8.1455745 91.3737106,8.7026786 L91.3737106,20.1790237 C91.3737106,20.7361297 91.8193969,21.1818122 92.376503,21.1818122 L94.1592331,21.1818122 L94.1592331,7.699892 Z M79.7859421,18.2848701 C79.2288361,17.8391838 78.8945694,17.0592422 78.8945694,16.3907165 L78.8945694,7.9227333 C78.8945694,6.5856838 80.0087814,5.4714756 81.3458252,5.4714756 L84.1313477,5.4714756 C85.4683915,5.4714756 86.5826035,6.5856838 86.5826035,7.9227333 L86.5826035,18.619133 C86.5826035,19.6219215 86.0254975,20.4018631 85.1341324,20.8475494 C84.7998657,20.9589691 84.4656067,21.0703926 84.0199204,21.0703926 C83.4628144,21.0703926 82.905716,20.8475494 82.4600297,20.5132866 L79.7859421,18.2848701 Z M81.1230011,16.3907166 C81.1230011,16.5021325 81.1230011,16.5021325 81.2344208,16.613556 L84.0199356,18.9533921 C84.1313553,19.0648118 84.242775,19.0648118 84.3542023,18.9533921 C84.465622,18.9533921 84.465622,18.8419724 84.465622,18.7305489 L84.465622,7.9227333 C84.465622,7.8113117 84.3542023,7.699892 84.2427826,7.699892 L81.4572678,7.699892 C81.3458481,7.699892 81.2344284,7.8113117 81.2344284,7.9227333 L81.2344284,16.3907165 L81.1230011,16.3907165 Z" id="Shape"></path>
            </g>
        </g>
    </g>
</svg>