<?xml version="1.0" encoding="utf-8"?>
<!-- Generator: Adobe Illustrator 23.0.3, SVG Export Plug-In . SVG Version: 6.00 Build 0)  -->
<svg version="1.1" id="Layer_1" xmlns="http://www.w3.org/2000/svg" xmlns:xlink="http://www.w3.org/1999/xlink" x="0px" y="0px"
	 viewBox="0 0 100 100" style="enable-background:new 0 0 100 100;" xml:space="preserve">
<style type="text/css">
	.st0{fill:#005EA5;}
</style>
<path class="st0" d="M93.1,43.1l-7.2-3.4c-0.6-0.3-1.5-1-1.9-1.5l-8.4-10.5c-0.7-0.9-2.1-1.5-3.2-1.5H50.3H6c-0.6,0-1,0.4-1,1v22.4
	v14.6c0,0.6,0.4,1,1,1h6c0.5,4.8,4.6,8.6,9.5,8.6s9-3.8,9.5-8.6h35.1c0.5,4.8,4.6,8.6,9.5,8.6s9-3.8,9.5-8.6H94c0.6,0,1-0.4,1-1
	V46.1C95,44.9,94.2,43.6,93.1,43.1z M93,52.9c-0.9-0.4-1.6-1.3-1.6-2.4c0-1.1,0.7-2,1.6-2.4V52.9z M74,29l8.4,10.5
	c0.1,0.2,0.3,0.3,0.4,0.5l-1.7,2c-0.3,0.4-1.2,0.8-1.7,0.8h-2l2.3-2.3c0.4-0.4,0.4-1,0-1.4s-1-0.4-1.4,0l-3.7,3.7H57.8V28.2h14.6
	C72.9,28.2,73.7,28.6,74,29z M7,49.6V28.2h43.3h5.6v15.5v11.9c0,0.6,0.4,1,1,1s1-0.4,1-1V44.7h21.6c1.1,0,2.5-0.6,3.2-1.5l1.8-2
	c0.2,0.1,0.4,0.3,0.6,0.3l7.2,3.4c0.4,0.2,0.7,0.7,0.7,1.1c-2,0.5-3.6,2.3-3.6,4.5s1.5,4,3.6,4.5v3.7h-6.2c-0.6,0-1,0.4-1,1
	s0.4,1,1,1H93v2.6h-7.8c-0.5-4.8-4.6-8.6-9.5-8.6c-3.2,0-6,1.6-7.8,4H33c-0.6,0-1,0.4-1,1s0.4,1,1,1h33.8c-0.3,0.8-0.6,1.7-0.7,2.6
	h-35c-0.5-4.8-4.6-8.6-9.5-8.6c-3.2,0-6,1.6-7.8,4h-3.5c-0.6,0-1,0.4-1,1s0.4,1,1,1h2.4c-0.3,0.8-0.6,1.7-0.7,2.6H7V49.6z
	 M21.5,71.8c-4.2,0-7.6-3.4-7.6-7.6s3.4-7.6,7.6-7.6s7.6,3.4,7.6,7.6S25.7,71.8,21.5,71.8z M75.7,71.8c-4.2,0-7.6-3.4-7.6-7.6
	s3.4-7.6,7.6-7.6s7.6,3.4,7.6,7.6C83.3,68.4,79.9,71.8,75.7,71.8z M59.1,48.5c0-0.6,0.4-1,1-1h4.2c0.6,0,1,0.4,1,1s-0.4,1-1,1h-4.2
	C59.6,49.5,59.1,49.1,59.1,48.5z"/>
</svg>
