<svg height='100px' width='100px'  fill="#005EA5" xmlns="http://www.w3.org/2000/svg" xmlns:xlink="http://www.w3.org/1999/xlink" version="1.1" x="0px" y="0px" viewBox="0 0 24 24" enable-background="new 0 0 24 24" xml:space="preserve"><path d="M20.73,12.442c-0.409,0-0.797,0.084-1.157,0.225l-0.459-0.849c0.04-0.014,0.071-0.037,0.112-0.05  c0.343-0.134,1.17-0.198,1.647-0.201l1.211,0.006c0.229-0.002,0.439-0.091,0.592-0.249c0.156-0.163,0.238-0.385,0.229-0.624  c-0.08-2.558-1.641-5.545-5.771-5.545c-0.055,0-0.109,0.012-0.159,0.033c-0.331,0.145-0.664,0.47-0.375,1.202  c0.008,0.02,0.015,0.04,0.023,0.06l-0.684-0.17c-0.216-0.059-0.432,0.078-0.484,0.291c-0.054,0.215,0.077,0.432,0.291,0.484  l1.228,0.306c0.07,0.174,0.133,0.331,0.18,0.457c-0.814-0.24-1.374-0.348-2.306-0.37l-0.184-0.003c-2.218,0-3.806,0.957-4.256,1.661  c-0.714-0.074-1.43-0.145-2.156-0.216L7.677,8.835V8.82C7.673,8.329,7.438,8.044,6.957,7.948L4.039,7.376  C3.719,7.313,3.4,7.25,3.081,7.179C2.74,7.103,2.444,7.205,2.242,7.457C2.12,7.609,1.949,7.932,2.176,8.373L2.542,9.09L1.83,9.329  c-0.234,0.08-0.468,0.16-0.705,0.229c-0.386,0.11-0.614,0.385-0.677,0.813c-0.077,0.522-0.165,1.043-0.252,1.563L0.11,12.446  c-0.006,0.033-0.041,0.352-0.041,0.479c0,0.21,0.044,0.376,0.133,0.507c0.112,0.163,0.291,0.257,0.49,0.257  c0.346,0,0.691-0.282,0.899-0.547c0.823-1.045,1.916-1.574,3.248-1.574l0.13,0.001c1.163,0.03,2.169,0.496,2.874,1.269L7.11,13.344  c-0.593-0.567-1.368-0.901-2.199-0.901c-1.765,0-3.201,1.437-3.201,3.201s1.437,3.201,3.201,3.201c1.766,0,3.202-1.437,3.202-3.201  c0-0.088-0.021-0.174-0.028-0.261l0.812-0.151l0.072,0.802c-0.031,0.319,0.062,0.634,0.25,0.842c0.154,0.17,0.365,0.265,0.595,0.265  v-0.4V16.34c-0.021-0.018-0.061-0.104-0.048-0.3L9.74,15.737h6c-0.009,0.16-0.024,0.321-0.019,0.477  c0.001,0.057-0.001,0.095,0.002,0.112c-0.021,0.005-0.054,0.01-0.101,0.013H9.819l-0.005,0.4l0.031,0.399h5.802  c0.615-0.038,0.894-0.34,0.873-0.95c-0.037-1.166,0.463-3.073,1.877-4.013l0.473,0.874c-0.809,0.582-1.341,1.525-1.341,2.594  c0,1.765,1.437,3.201,3.201,3.201s3.201-1.437,3.201-3.201S22.495,12.442,20.73,12.442z M14.828,8.247  c0.836,0.021,1.322,0.113,2.1,0.342c-0.988,0.694-3.172,1.835-5.678,0.751c0.45-0.433,1.662-1.096,3.414-1.096L14.828,8.247z   M3.882,8.161l2.985,0.564c0,0.001,0.006,0.026,0.008,0.084L3.359,8.915L2.909,7.96C3.232,8.032,3.557,8.097,3.882,8.161z   M8.617,14.126l0.094,0.325l-2.459,0.457l2.062-1.424C8.432,13.686,8.534,13.899,8.617,14.126z M7.312,15.644  c0,1.324-1.077,2.4-2.401,2.4s-2.4-1.076-2.4-2.4s1.076-2.4,2.4-2.4c0.568,0,1.104,0.205,1.532,0.562l-2.185,1.509  c-0.155,0.107-0.214,0.309-0.142,0.482c0.063,0.151,0.21,0.247,0.369,0.247c0.024,0,0.049-0.003,0.073-0.007L7.3,15.528  C7.302,15.567,7.312,15.604,7.312,15.644z M15.84,14.937H9.685l-0.116-0.399c-0.058-0.252-0.107-0.437-0.11-0.445  c-0.021-0.067-0.052-0.126-0.076-0.191l-0.035-0.119c-0.011-0.036-0.031-0.066-0.051-0.097c-0.145-0.355-0.318-0.689-0.532-0.988  c-0.002-0.003-0.002-0.007-0.004-0.009c-0.005-0.008-0.013-0.011-0.019-0.018C7.897,11.512,6.561,10.81,4.99,10.77l-0.15-0.002  c-1.59,0-2.895,0.632-3.877,1.88c-0.026,0.033-0.054,0.064-0.081,0.091c0.007-0.074,0.015-0.143,0.018-0.161l0.085-0.51  c0.089-0.526,0.178-1.052,0.255-1.58c0.021-0.136,0.037-0.141,0.106-0.16c0.25-0.072,0.497-0.156,0.743-0.241L3.183,9.72  l4.074-0.122l0.917,0.09c0.748,0.073,1.484,0.145,2.316,0.228c0.023,0,0.039-0.015,0.06-0.017c0.983,0.5,1.93,0.699,2.797,0.699  c2.712,0,4.672-1.854,4.698-1.878c0.042-0.041,0.072-0.09,0.092-0.141c0.004-0.011,0.004-0.022,0.007-0.033  c0.015-0.049,0.02-0.098,0.016-0.148c-0.001-0.008,0.004-0.016,0.003-0.025c-0.013-0.088-0.053-0.356-0.563-1.589l-0.061-0.166  c-0.064-0.175-0.129-0.35-0.197-0.521c-0.025-0.063-0.039-0.109-0.046-0.14c3.433,0.075,4.736,2.499,4.782,4.815l-1.213-0.006  c-0.053,0.001-1.305,0.012-1.905,0.248C17.217,11.552,16.168,13.249,15.84,14.937z M20.73,18.044c-1.324,0-2.4-1.076-2.4-2.4  c0-0.766,0.367-1.441,0.927-1.881l0.955,1.765c0.072,0.134,0.21,0.21,0.352,0.21c0.064,0,0.13-0.016,0.19-0.049  c0.194-0.104,0.267-0.348,0.161-0.542l-0.955-1.765c0.243-0.083,0.5-0.138,0.771-0.138c1.324,0,2.4,1.076,2.4,2.4  S22.054,18.044,20.73,18.044z"></path></svg>
