<?xml version="1.0" encoding="UTF-8"?>
<svg viewBox="0 0 98 42" version="1.1" xmlns="http://www.w3.org/2000/svg" xmlns:xlink="http://www.w3.org/1999/xlink">
    <!-- Generator: Sketch 52.6 (67491) - http://www.bohemiancoding.com/sketch -->
    <title>PSV icon</title>
    <desc>Created with Sketch.</desc>
    <g id="Site-visit" stroke="none" stroke-width="1" fill="none" fill-rule="evenodd">
        <g id="Artboard" transform="translate(-1232.000000, -1354.000000)" fill="#005EA5" fill-rule="nonzero">
            <g id="PSV-icon" transform="translate(1281.000000, 1375.000000) scale(-1, 1) translate(-1281.000000, -1375.000000) translate(1232.000000, 1354.000000)">
                <path d="M65.2214737,29.8744965 C65.2214737,30.5278893 64.7858734,30.9634858 64.1324844,30.9634858 L44.6395988,30.9634858 C43.9862098,30.9634858 43.5506134,30.5278893 43.5506134,29.8744965 C43.5506134,29.2211075 43.9862099,28.7855072 44.6395988,28.7855072 L64.0235824,28.7855072 C64.6769791,28.7855072 65.2214737,29.2211075 65.2214737,29.8744965 Z M16.4348164,28.7855072 L5.8716354,28.7855072 C5.2182426,28.7855072 4.7826476,29.2211075 4.7826476,29.8744965 C4.7826476,30.5278893 5.2182426,30.9634858 5.8716354,30.9634858 L16.4348163,30.9634858 C17.0882091,30.9634858 17.5238037,30.5278893 17.5238037,29.8744965 C17.5238037,29.2211075 16.979311,28.7855072 16.4348164,28.7855072 Z M98,19.5291138 L98,33.0325585 C98,34.6660424 96.6932144,36.0817223 94.9508286,36.0817223 L78.0715179,36.0817223 C77.5270233,39.021988 75.0223541,41.1999665 71.9731903,41.1999665 C68.9240265,41.1999665 66.4193573,39.021988 65.8748627,36.0817223 L44.3129044,36.0817223 C43.7684098,39.021988 41.2637406,41.1999665 38.2145729,41.1999665 C35.1654091,41.1999665 32.6607361,39.021988 32.1162414,36.0817223 L29.7204685,36.0817223 C29.1759739,39.021988 26.6713028,41.1999665 23.622137,41.1999665 C20.5729712,41.1999665 18.0682983,39.021988 17.5238036,36.0817223 L14.1479424,36.0817223 L13.8212451,36.0817223 L3.1491656,36.0817223 C1.5156841,36.0817223 0.1000001,34.6660424 0.1000001,33.0325585 L0.1000001,28.8944054 L0.1000001,23.6672669 L0.1000001,3.1942959 C0.1000001,1.5608158 1.4067854,0.1451321 3.1491656,0.1451321 L92.9906649,0.1451321 C93.7529482,0.1451321 94.4063448,0.3629303 94.9508395,0.9074231 L96.8021197,2.5409051 C97.4555087,3.0853997 97.891109,3.9565888 97.891109,4.827778 L98,19.5291138 Z M27.6513901,34.9927406 C27.6513901,32.8147659 25.8001099,30.9634857 23.6221352,30.9634857 C21.4441605,30.9634857 19.5928803,32.7058677 19.5928803,34.9927406 C19.5928803,37.2796135 21.4441605,39.0219879 23.6221371,39.0219879 C25.8001137,39.0219879 27.6513901,37.1707153 27.6513901,34.9927406 Z M42.243824,34.9927406 C42.243824,32.8147659 40.3925438,30.9634857 38.2145691,30.9634857 C36.0365944,30.9634857 34.1853142,32.8147659 34.1853142,34.9927406 C34.1853142,37.1707153 36.0365944,39.0219879 38.2145691,39.0219879 C40.3925438,39.0219879 42.243824,37.1707153 42.243824,34.9927406 Z M76.002449,34.9927406 C76.002449,32.8147659 74.1511764,30.9634857 71.9731979,30.9634857 C69.795227,30.9634857 67.9439468,32.8147659 67.9439468,34.9927406 C67.9439468,37.1707153 69.795227,39.0219879 71.9731979,39.0219879 C74.1511765,39.0219879 76.002449,37.1707153 76.002449,34.9927406 Z M95.8220215,33.0325623 L95.8220215,30.5278931 L93.2084503,30.5278931 C92.5550613,30.5278931 92.119461,30.0922966 92.119461,29.4389038 C92.119461,28.7855148 92.5550613,28.3499145 93.2084503,28.3499145 L95.8220215,28.3499145 L95.8220215,20.1825065 L94.1885452,20.1825065 C92.446167,20.1825065 91.0304794,18.7668266 91.0304794,17.0244407 L91.0304794,7.5502471 C91.0304794,5.8078689 92.446167,4.3921813 94.1885452,4.3921813 L95.4953232,4.3921813 C95.4953232,4.283285 95.3864289,4.283285 95.3864289,4.1743831 L93.5351487,2.5409011 C93.4262544,2.4320029 93.2084504,2.3231029 92.9906617,2.3231029 L3.1491656,2.3231029 C2.7135706,2.3231029 2.2779755,2.6497993 2.2779755,3.194292 L2.2779755,23.667263 L2.2779755,28.8944015 L2.2779755,33.0325546 C2.2779755,33.4681511 2.7135708,33.9037437 3.1491656,33.9037437 L13.712347,33.9037437 L14.1479425,33.9037437 L17.5238037,33.9037437 C18.0682983,30.963478 20.5729694,28.7854995 23.6221371,28.7854995 C26.6713048,28.7854995 29.1759739,30.963478 29.7204686,33.9037437 L32.1162415,33.9037437 C32.6607361,30.963478 35.1654091,28.7854995 38.214573,28.7854995 C41.2637406,28.7854995 43.7684098,30.963478 44.3129045,33.9037437 L65.8748628,33.9037437 C66.4193574,30.963478 68.9240266,28.7854995 71.9731904,28.7854995 C75.0223542,28.7854995 77.5270234,30.963478 78.071518,33.9037437 L95.0597306,33.9037437 C95.4953232,33.9037514 95.8220215,33.4681549 95.8220215,33.0325623 Z M94.1885452,6.5701599 C93.6440506,6.5701599 93.2084503,7.0057564 93.2084503,7.550251 L93.2084503,17.0244408 C93.2084503,17.5689354 93.6440506,18.0045319 94.1885452,18.0045319 L95.3864288,18.0045319 L95.3864288,6.5701599 L94.1885452,6.5701599 Z M74.6956635,6.4612617 L74.6956635,17.1333389 C74.6956635,17.7867317 74.2600632,18.2223282 73.6066742,18.2223282 L6.5250278,18.2223282 C5.8716355,18.2223282 5.43604,17.7867317 5.43604,17.1333389 L5.43604,6.4612617 C5.43604,5.8078689 5.8716355,5.3722724 6.5250278,5.3722724 L73.6066776,5.3722724 C74.2600632,5.3722725 74.6956635,5.807869 74.6956635,6.4612617 Z M18.612793,15.9354553 L18.612793,16.0443496 L27.7602902,16.0443496 L27.7602902,15.9354553 L27.7602902,7.5502472 L18.612793,7.5502472 L18.612793,15.9354553 Z M29.9382648,16.0443497 L39.085762,16.0443497 L39.085762,15.9354554 L39.085762,7.5502473 L29.9382648,7.5502473 L29.9382667,15.9354554 C29.9382648,15.9354553 29.9382648,16.0443497 29.9382648,16.0443497 Z M41.1548386,16.0443497 L49.5400429,16.0443497 L49.5400429,15.9354554 L49.5400429,7.5502473 L41.1548386,7.5502473 L41.1548386,15.9354554 L41.1548386,16.0443497 Z M51.7180214,16.0443497 L61.6278076,16.0443497 L61.6278076,15.9354554 L61.6278076,7.5502473 L51.7180214,7.5502473 L51.7180214,15.9354554 L51.7180214,16.0443497 Z M7.6140156,16.0443497 L16.5437145,16.0443497 L16.5437145,15.9354554 L16.5437145,7.5502473 L7.6140156,7.5502473 L7.6140156,16.0443497 Z M72.5176849,7.5502472 L63.8057861,7.5502471 L63.8057861,15.9354553 L63.8057861,16.0443496 L72.6265793,16.0443496 L72.6265793,7.5502471 L72.5176849,7.5502471 Z M89.1791992,7.5502472 L89.1791992,28.8944092 C89.1791992,30.5278931 87.8724212,31.8346787 86.2389374,31.8346787 L80.2495041,31.8346787 C78.6160202,31.8346787 77.3092423,30.5278931 77.3092423,28.8944092 L77.3092423,7.5502472 C77.3092423,5.9167652 78.6160203,4.6099796 80.2495041,4.6099796 L86.2389374,4.6099796 C87.7635117,4.6099796 89.1791992,5.9167652 89.1791992,7.5502472 Z M79.3783112,7.5502472 L79.3783112,23.5583687 L86.8923264,23.5583687 L86.8923264,7.5502472 C86.8923264,7.1146507 86.5656281,6.7879562 86.1300431,6.7879562 L80.1406098,6.7879562 C79.7050018,6.7879562 79.3783112,7.1146545 79.3783112,7.5502472 Z M87.0012283,28.7855072 L87.0012283,25.7363434 L79.4872055,25.7363434 L79.4872055,28.7855072 C79.4872055,29.2211075 79.8139114,29.547802 80.2494965,29.547802 L86.2389298,29.547802 C86.5656281,29.547802 87.0012283,29.2211075 87.0012283,28.7855072 Z" id="Shape"></path>
            </g>
        </g>
    </g>
</svg>