<?xml version="1.0" encoding="UTF-8"?>
<svg width="99px" height="58px" viewBox="0 0 99 58" version="1.1" xmlns="http://www.w3.org/2000/svg" xmlns:xlink="http://www.w3.org/1999/xlink">
    <!-- Generator: Sketch 52.6 (67491) - http://www.bohemiancoding.com/sketch -->
    <title>Trailer icon</title>
    <desc>Created with Sketch.</desc>
    <g id="ATF-confirmation" stroke="none" stroke-width="1" fill="none" fill-rule="evenodd">
        <g id="Artboard" transform="translate(-551.000000, -312.000000)" fill="#005EA5" fill-rule="nonzero">
            <g id="Trailer-icon" transform="translate(600.500000, 341.000000) scale(-1, 1) translate(-600.500000, -341.000000) translate(551.000000, 312.000000)">
                <path d="M46.6728592,41.9619904 C42.8133621,41.9619904 39.6154938,44.8290406 39.0641365,48.57827 L35.5354538,48.57827 C34.9840965,44.8290406 31.786232,41.9619904 27.9267368,41.9619904 C23.7364273,41.9619904 20.2077465,45.3804017 20.2077465,49.6809845 C20.2077465,53.8712921 23.6261558,57.399971 27.9267368,57.399971 C31.786232,57.399971 34.9840965,54.5329208 35.5354538,50.7836914 L39.0641365,50.7836914 C39.6154938,54.5329208 42.8133621,57.399971 46.6728592,57.399971 C50.8631668,57.399971 54.3918457,53.9815597 54.3918457,49.6809845 C54.3918457,45.3804016 50.8631668,41.9619904 46.6728592,41.9619904 Z M27.9267368,55.0842743 C24.9494114,55.0842743 22.4131717,52.6583099 22.4131717,49.5707092 C22.4131717,46.5933838 24.8391418,44.0571441 27.9267368,44.0571441 C30.9040622,44.0571441 33.4403,46.4831161 33.4403,49.5707092 C33.3300285,52.6583023 30.9040623,55.0842743 27.9267368,55.0842743 Z M46.6728592,55.0842743 C43.6955299,55.0842743 41.1592941,52.6583099 41.1592941,49.5707092 C41.1592941,46.5933838 43.5852623,44.0571441 46.6728592,44.0571441 C49.6501846,44.0571441 52.1864204,46.4831161 52.1864204,49.5707092 C52.1864204,52.6583023 49.650177,55.0842743 46.6728592,55.0842743 Z M19.6563892,43.0647049 C19.6563892,43.7263336 19.2153053,44.1674194 18.5536766,44.1674194 L9.1806173,44.1674194 C8.5189895,44.1674194 8.0779047,43.7263336 8.0779047,43.0647049 C8.0779047,42.40308 8.5189896,41.9619904 9.1806173,41.9619904 L18.5536766,41.9619904 C19.2153053,41.9619904 19.6563892,42.4030724 19.6563892,43.0647049 Z M96.9565659,0.4999847 L1.9027128,0.4999847 C1.2410851,0.4999847 0.8,0.9410686 0.8,1.6026974 L0.8,36.9997769 C0.8,37.6614018 1.2410851,38.1024914 1.9027129,38.1024914 L83.2829314,38.1024914 L83.2829314,41.851717 L55.0534774,41.851717 C54.3918487,41.851717 53.9507629,42.2928028 53.9507629,42.9544277 C53.9507629,43.6160564 54.3918487,44.0571422 55.0534774,44.0571422 L83.2829238,44.0571422 L83.2829238,54.4226436 C83.2829238,55.0842647 83.7240096,55.5253505 84.3856383,55.5253505 C85.047267,55.5253505 85.4883528,55.0842647 85.4883528,54.4226436 L85.4883528,38.1024971 L96.9565687,38.1024971 C97.6181898,38.1024971 98.0592756,37.6614113 98.0592756,36.9997826 L98.0592756,1.6026974 C98.0592728,1.051342 97.618187,0.4999847 96.9565659,0.4999847 Z M95.8538527,35.8970718 L3.0054259,35.8970718 L3.0054259,2.70541 L95.8538527,2.70541 L95.8538527,35.8970718 Z" id="Shape"></path>
            </g>
        </g>
    </g>
</svg>